<svg width="62" height="62" viewBox="0 0 62 62" fill="none" xmlns="http://www.w3.org/2000/svg">
<g filter="url(#filter0_d_113_200)">
<path d="M14.2 8C11.8933 8 10 9.89328 10 12.2V25.5612C10 25.7122 10.0066 25.8533 10.0262 26.0075C10.0427 26.1683 10.0722 26.3258 10.105 26.48C10.1903 26.8803 10.3248 27.2609 10.4987 27.6087L10.525 27.635L12.4675 31.1C13.2025 32.36 14.5839 33.2 16.1425 33.2H20.08V31.52H16.1425C15.1877 31.52 14.3805 31.0081 13.9375 30.26L13.7012 29.84H48.2987L48.0625 30.26C47.6327 30.9786 46.7073 31.52 45.8575 31.52H41.92V33.2H45.8575C47.3537 33.2 48.7811 32.3895 49.5325 31.1L51.475 27.635L51.5012 27.6087C51.6752 27.2609 51.8097 26.8803 51.895 26.48C51.9278 26.3258 51.9573 26.1683 51.9737 26.0075C51.9934 25.8533 52 25.7122 52 25.5612V12.2C52 9.89328 50.1067 8 47.8 8H14.2ZM41.92 13.04H43.6V15.77L45.9625 14.405L46.8025 15.875L44.44 17.24L46.8025 18.605L45.9625 20.075L43.6 18.71V21.44H41.92V18.71L39.5575 20.075L38.7175 18.605L41.08 17.24L38.7175 15.875L39.5837 14.405L41.92 15.77V13.04ZM11.89 26.48H50.11C50.0641 26.6047 50.0378 26.7294 49.9787 26.8475L49.2437 28.16H12.7562L12.0213 26.8475C11.9622 26.7294 11.9359 26.6047 11.89 26.48ZM23.44 31.52C22.5114 31.52 21.76 32.2714 21.76 33.2C21.76 34.1286 22.5114 34.88 23.44 34.88C24.3686 34.88 25.12 34.1286 25.12 33.2C25.12 32.2714 24.3686 31.52 23.44 31.52ZM31 31.52C30.0714 31.52 29.32 32.2714 29.32 33.2C29.32 34.1286 30.0714 34.88 31 34.88C31.9286 34.88 32.68 34.1286 32.68 33.2C32.68 32.2714 31.9286 31.52 31 31.52ZM38.56 31.52C37.6314 31.52 36.88 32.2714 36.88 33.2C36.88 34.1286 37.6314 34.88 38.56 34.88C39.4886 34.88 40.24 34.1286 40.24 33.2C40.24 32.2714 39.4886 31.52 38.56 31.52ZM22.6 36.56C21.6714 36.56 20.92 37.3114 20.92 38.24C20.92 39.1686 21.6714 39.92 22.6 39.92C23.5286 39.92 24.28 39.1686 24.28 38.24C24.28 37.3114 23.5286 36.56 22.6 36.56ZM31 36.56C30.0714 36.56 29.32 37.3114 29.32 38.24C29.32 39.1686 30.0714 39.92 31 39.92C31.9286 39.92 32.68 39.1686 32.68 38.24C32.68 37.3114 31.9286 36.56 31 36.56ZM39.4 36.56C38.4714 36.56 37.72 37.3114 37.72 38.24C37.72 39.1686 38.4714 39.92 39.4 39.92C40.3286 39.92 41.08 39.1686 41.08 38.24C41.08 37.3114 40.3286 36.56 39.4 36.56ZM20.92 41.6C19.9914 41.6 19.24 42.3514 19.24 43.28C19.24 44.2086 19.9914 44.96 20.92 44.96C21.8486 44.96 22.6 44.2086 22.6 43.28C22.6 42.3514 21.8486 41.6 20.92 41.6ZM31 41.6C30.0714 41.6 29.32 42.3514 29.32 43.28C29.32 44.2086 30.0714 44.96 31 44.96C31.9286 44.96 32.68 44.2086 32.68 43.28C32.68 42.3514 31.9286 41.6 31 41.6ZM41.08 41.6C40.1514 41.6 39.4 42.3514 39.4 43.28C39.4 44.2086 40.1514 44.96 41.08 44.96C42.0086 44.96 42.76 44.2086 42.76 43.28C42.76 42.3514 42.0086 41.6 41.08 41.6ZM17.56 46.64C16.6314 46.64 15.88 47.3914 15.88 48.32C15.88 49.2486 16.6314 50 17.56 50C18.4886 50 19.24 49.2486 19.24 48.32C19.24 47.3914 18.4886 46.64 17.56 46.64ZM31 46.64C30.0714 46.64 29.32 47.3914 29.32 48.32C29.32 49.2486 30.0714 50 31 50C31.9286 50 32.68 49.2486 32.68 48.32C32.68 47.3914 31.9286 46.64 31 46.64ZM44.44 46.64C43.5114 46.64 42.76 47.3914 42.76 48.32C42.76 49.2486 43.5114 50 44.44 50C45.3686 50 46.12 49.2486 46.12 48.32C46.12 47.3914 45.3686 46.64 44.44 46.64Z" fill="url(#paint0_linear_113_200)"/>
</g>
<defs>
<filter id="filter0_d_113_200" x="0" y="0" width="62" height="62" filterUnits="userSpaceOnUse" color-interpolation-filters="sRGB">
<feFlood flood-opacity="0" result="BackgroundImageFix"/>
<feColorMatrix in="SourceAlpha" type="matrix" values="0 0 0 0 0 0 0 0 0 0 0 0 0 0 0 0 0 0 127 0" result="hardAlpha"/>
<feOffset dy="2"/>
<feGaussianBlur stdDeviation="5"/>
<feComposite in2="hardAlpha" operator="out"/>
<feColorMatrix type="matrix" values="0 0 0 0 0 0 0 0 0 0 0 0 0 0 0 0 0 0 0.25 0"/>
<feBlend mode="normal" in2="BackgroundImageFix" result="effect1_dropShadow_113_200"/>
<feBlend mode="normal" in="SourceGraphic" in2="effect1_dropShadow_113_200" result="shape"/>
</filter>
<linearGradient id="paint0_linear_113_200" x1="31" y1="8" x2="31" y2="50" gradientUnits="userSpaceOnUse">
<stop stop-color="#27D71C"/>
<stop offset="1" stop-color="#ABE605"/>
</linearGradient>
</defs>
</svg>
