<svg width="30" height="30" viewBox="0 0 30 30" fill="none" xmlns="http://www.w3.org/2000/svg">
<g clip-path="url(#clip0_4_881)">
<path d="M7.8898 -0.137695C7.67321 -0.137695 7.45766 -0.120702 7.2441 -0.0857422C6.50234 0.0358578 5.68747 0.281397 5.03387 0.640117C4.20623 1.09536 3.55566 1.73114 2.9127 2.4273C1.69898 3.7421 0.881797 5.34756 0.640117 7.10012C0.604397 7.35852 0.58668 7.61732 0.58668 7.87496C0.58744 12.302 4.34011 15.76 8.76559 15.76C9.69583 15.76 10.583 15.5972 11.4152 15.3221C11.3954 15.5326 11.3631 15.7397 11.3054 15.9381C10.8957 17.4429 10.1488 18.794 8.51027 18.794C6.77063 18.794 6.16523 17.6135 4.98191 17.3779C4.12767 17.2077 3.22437 17.3745 2.43473 17.7431C1.37605 18.2378 0.544927 19.4756 0.141367 20.5723C-0.0387529 21.0625 -0.137695 21.5872 -0.137695 22.1101C-0.137695 22.3267 -0.120702 22.5423 -0.0857422 22.7558C0.0358578 23.4976 0.281397 24.3125 0.640117 24.9661C1.09536 25.7937 1.73114 26.4443 2.4273 27.0872C3.7421 28.3009 5.34756 29.1181 7.10012 29.3598C7.35852 29.3955 7.61732 29.4132 7.87496 29.4132C12.302 29.4125 15.76 25.6598 15.76 21.2343C15.76 20.3041 15.5972 19.4169 15.3221 18.5847C15.5326 18.6045 15.7397 18.6368 15.9381 18.6946C17.4429 19.1042 18.794 19.8511 18.794 21.4897C18.794 23.2293 17.6135 23.8347 17.3779 25.018C17.2077 25.8722 17.3745 26.7756 17.7431 27.5652C18.2378 28.6239 19.4756 29.455 20.5723 29.8586C21.0625 30.0387 21.5872 30.1376 22.1101 30.1376C22.3267 30.1376 22.5423 30.1206 22.7558 30.0857C23.4976 29.9641 24.3125 29.7185 24.9661 29.3598C25.7937 28.9046 26.4443 28.2688 27.0872 27.5726C28.3009 26.2578 29.1181 24.6524 29.3598 22.8998C29.3955 22.6414 29.4132 22.3826 29.4132 22.125C29.4125 17.698 25.6598 14.24 21.2343 14.24C20.3041 14.24 19.4169 14.4027 18.5847 14.6779C18.6045 14.4673 18.6368 14.2602 18.6946 14.0618C19.1042 12.557 19.8511 11.2074 21.4897 11.2074C23.2293 11.2074 23.8347 12.3879 25.018 12.6235C25.8722 12.7937 26.7756 12.6254 27.5652 12.2568C28.6239 11.7621 29.455 10.5243 29.8586 9.42762C30.0387 8.93742 30.1376 8.41417 30.1376 7.89129C30.1376 7.67469 30.1206 7.45915 30.0857 7.24559C29.9641 6.50383 29.7185 5.68747 29.3598 5.03387C28.9046 4.20547 28.2688 3.55714 27.5726 2.91418C26.2578 1.70046 24.6524 0.881797 22.8998 0.640117C22.6414 0.604397 22.3826 0.58668 22.125 0.58668C17.698 0.58668 14.24 4.34011 14.24 8.76559C14.24 9.69583 14.4027 10.583 14.6779 11.4152C14.4673 11.3954 14.2602 11.3631 14.0618 11.3054C12.557 10.8957 11.2059 10.1488 11.2059 8.51027C11.2059 6.77063 12.3864 6.16523 12.622 4.98191C12.7922 4.12767 12.6254 3.22437 12.2568 2.43473C11.7621 1.37605 10.5243 0.544927 9.42762 0.141367C8.93742 -0.0387529 8.41269 -0.137695 7.8898 -0.137695ZM15 13.2944C15.9492 13.2944 16.7189 14.0626 16.7189 15.0118C16.7189 15.9611 15.9484 16.7307 15 16.7307C14.0515 16.7307 13.2811 15.9611 13.2811 15.0118C13.2811 14.0634 14.0507 13.2944 15 13.2944Z" fill="url(#paint0_linear_4_881)"/>
</g>
<defs>
<linearGradient id="paint0_linear_4_881" x1="15" y1="-0.137695" x2="15" y2="30.1376" gradientUnits="userSpaceOnUse">
<stop stop-color="#27D71C"/>
<stop offset="1" stop-color="#ABE605"/>
</linearGradient>
<clipPath id="clip0_4_881">
<rect width="30" height="30" fill="white"/>
</clipPath>
</defs>
</svg>
