<svg width="54" height="59" viewBox="0 0 54 59" fill="none" xmlns="http://www.w3.org/2000/svg">
<g filter="url(#filter0_d_115_355)">
<path d="M12.9119 8.71429C11.464 8.71429 10.2857 9.86801 10.2857 11.2857V43.8572C10.2857 45.2749 11.464 46.4286 12.9119 46.4286H40.924C42.3719 46.4286 43.5502 45.2749 43.5502 43.8572V11.2857C43.5502 9.86801 42.3719 8.71429 40.924 8.71429H12.9119ZM32.1702 13C33.1375 13 33.921 13.7672 33.921 14.7143C33.921 15.6614 33.1375 16.4286 32.1702 16.4286C31.2029 16.4286 30.4195 15.6614 30.4195 14.7143C30.4195 13.7672 31.2029 13 32.1702 13ZM37.4225 13C38.3898 13 39.1733 13.7672 39.1733 14.7143C39.1733 15.6614 38.3898 16.4286 37.4225 16.4286C36.4552 16.4286 35.6717 15.6614 35.6717 14.7143C35.6717 13.7672 36.4552 13 37.4225 13ZM26.9179 19.8572C31.6367 19.8572 35.558 23.1857 36.3813 27.5748C35.1567 26.9508 33.8884 26.7332 33.0644 26.716C31.8147 26.6902 30.846 27.2166 29.9339 27.6401C29.0218 28.0635 28.1478 28.4286 26.9179 28.4286C25.688 28.4286 24.8141 28.0635 23.902 27.6401C22.9903 27.2169 22.022 26.6908 20.7732 26.716H20.7715C19.9464 26.7326 18.6779 26.9498 17.4546 27.5731C18.2783 23.1848 22.1982 19.8572 26.9179 19.8572ZM20.8074 28.4286C20.8079 28.4286 20.8085 28.4286 20.8091 28.4286C21.5167 28.414 22.1964 28.7453 23.1514 29.1886C24.1064 29.632 25.3186 30.1429 26.9179 30.1429C28.5173 30.1429 29.7294 29.632 30.6845 29.1886C31.6395 28.7453 32.3191 28.414 33.0268 28.4286C33.6631 28.4418 35.3782 28.8049 36.4326 29.6423C36.4619 29.6654 36.4928 29.6867 36.5249 29.7059C36.2987 34.7167 32.0893 38.7143 26.9179 38.7143C21.7454 38.7143 17.5379 34.7176 17.311 29.7076C17.3432 29.6878 17.374 29.666 17.4033 29.6423C18.4578 28.8047 20.1729 28.4412 20.8074 28.4286Z" fill="url(#paint0_linear_115_355)"/>
</g>
<defs>
<filter id="filter0_d_115_355" x="0.285721" y="0.714294" width="53.2644" height="57.7143" filterUnits="userSpaceOnUse" color-interpolation-filters="sRGB">
<feFlood flood-opacity="0" result="BackgroundImageFix"/>
<feColorMatrix in="SourceAlpha" type="matrix" values="0 0 0 0 0 0 0 0 0 0 0 0 0 0 0 0 0 0 127 0" result="hardAlpha"/>
<feOffset dy="2"/>
<feGaussianBlur stdDeviation="5"/>
<feComposite in2="hardAlpha" operator="out"/>
<feColorMatrix type="matrix" values="0 0 0 0 0 0 0 0 0 0 0 0 0 0 0 0 0 0 0.25 0"/>
<feBlend mode="normal" in2="BackgroundImageFix" result="effect1_dropShadow_115_355"/>
<feBlend mode="normal" in="SourceGraphic" in2="effect1_dropShadow_115_355" result="shape"/>
</filter>
<linearGradient id="paint0_linear_115_355" x1="26.9179" y1="8.71429" x2="26.9179" y2="46.4286" gradientUnits="userSpaceOnUse">
<stop stop-color="#27D71C"/>
<stop offset="1" stop-color="#ABE605"/>
</linearGradient>
</defs>
</svg>
