<svg width="30" height="32" viewBox="0 0 30 32" fill="none" xmlns="http://www.w3.org/2000/svg">
<g filter="url(#filter0_d_4_1236)">
<path d="M25.1545 16.6139C22.8019 8.877 15.8781 0.619812 15.5261 0.202627C15.4711 0.142438 15.4042 0.094365 15.3296 0.0614743C15.255 0.0285835 15.1744 0.0115967 15.0929 0.0115967C15.0114 0.0115967 14.9307 0.0285835 14.8562 0.0614743C14.7816 0.094365 14.7147 0.142438 14.6597 0.202627C14.3077 0.619812 7.38265 8.87581 5.02887 16.6139C4.5465 18.2008 4.24072 19.7688 4.24072 21.2397C4.24072 27.2225 9.10946 32.09 15.0923 32.09C21.0751 32.09 25.9415 27.2225 25.9415 21.2397C25.9427 19.7688 25.6369 18.202 25.1545 16.6139ZM15.0935 30.957C9.73524 30.957 5.37613 26.5979 5.37613 21.2408C5.37613 19.7866 5.69969 18.2151 6.21643 16.6151C8.27509 10.2447 13.5444 3.39315 15.0935 1.46722C16.6425 3.39315 21.9118 10.2447 23.9681 16.6151C24.4849 18.2163 24.8084 19.7866 24.8084 21.2408C24.8084 26.5979 20.4505 30.957 15.0935 30.957Z" fill="#A1FFFF"/>
<path d="M9.01097 16.6134C8.41837 18.1186 8.02252 19.6261 8.02252 20.9986C8.02252 22.8737 8.76742 24.6721 10.0933 25.998C11.4193 27.3239 13.2176 28.0688 15.0927 28.0688C16.9679 28.0688 18.7662 27.3239 20.0921 25.998C21.4181 24.6721 22.163 22.8737 22.163 20.9986C22.163 19.6261 21.7671 18.1186 21.1745 16.6134H9.01097Z" fill="#A1FFFF"/>
</g>
<defs>
<filter id="filter0_d_4_1236" x="0.240723" y="0.0115967" width="29.7007" height="40.0785" filterUnits="userSpaceOnUse" color-interpolation-filters="sRGB">
<feFlood flood-opacity="0" result="BackgroundImageFix"/>
<feColorMatrix in="SourceAlpha" type="matrix" values="0 0 0 0 0 0 0 0 0 0 0 0 0 0 0 0 0 0 127 0" result="hardAlpha"/>
<feOffset dy="4"/>
<feGaussianBlur stdDeviation="2"/>
<feComposite in2="hardAlpha" operator="out"/>
<feColorMatrix type="matrix" values="0 0 0 0 0 0 0 0 0 0 0 0 0 0 0 0 0 0 0.25 0"/>
<feBlend mode="normal" in2="BackgroundImageFix" result="effect1_dropShadow_4_1236"/>
<feBlend mode="normal" in="SourceGraphic" in2="effect1_dropShadow_4_1236" result="shape"/>
</filter>
</defs>
</svg>
