<svg width="54" height="59" viewBox="0 0 54 59" fill="none" xmlns="http://www.w3.org/2000/svg">
<g filter="url(#filter0_d_102_344)">
<path d="M12.9119 8.71423C11.464 8.71423 10.2858 9.86795 10.2858 11.2857V43.8571C10.2858 45.2748 11.464 46.4285 12.9119 46.4285H40.9241C42.3719 46.4285 43.5502 45.2748 43.5502 43.8571V11.2857C43.5502 9.86795 42.3719 8.71423 40.9241 8.71423H12.9119ZM32.1703 12.9999C33.1376 12.9999 33.921 13.7671 33.921 14.7142C33.921 15.6614 33.1376 16.4285 32.1703 16.4285C31.203 16.4285 30.4195 15.6614 30.4195 14.7142C30.4195 13.7671 31.203 12.9999 32.1703 12.9999ZM37.4225 12.9999C38.3898 12.9999 39.1733 13.7671 39.1733 14.7142C39.1733 15.6614 38.3898 16.4285 37.4225 16.4285C36.4553 16.4285 35.6718 15.6614 35.6718 14.7142C35.6718 13.7671 36.4553 12.9999 37.4225 12.9999ZM26.918 19.8571C31.6368 19.8571 35.558 23.1856 36.3813 27.5747C35.1568 26.9507 33.8885 26.7331 33.0645 26.7159C31.8148 26.6902 30.8461 27.2166 29.9339 27.64C29.0218 28.0634 28.1479 28.4285 26.918 28.4285C25.6881 28.4285 24.8142 28.0634 23.902 27.64C22.9903 27.2168 22.022 26.6907 20.7732 26.7159H20.7715C19.9464 26.7325 18.678 26.9498 17.4546 27.5731C18.2783 23.1847 22.1982 19.8571 26.918 19.8571ZM20.8074 28.4285C20.808 28.4285 20.8086 28.4285 20.8091 28.4285C21.5168 28.414 22.1964 28.7452 23.1515 29.1886C24.1065 29.6319 25.3187 30.1428 26.918 30.1428C28.5173 30.1428 29.7295 29.6319 30.6845 29.1886C31.6396 28.7452 32.3192 28.414 33.0268 28.4285C33.6632 28.4418 35.3783 28.8048 36.4326 29.6422C36.462 29.6654 36.4928 29.6866 36.5249 29.7059C36.2988 34.7166 32.0894 38.7142 26.918 38.7142C21.7455 38.7142 17.538 34.7175 17.311 29.7075C17.3432 29.6878 17.3741 29.6659 17.4034 29.6422C18.4579 28.8047 20.1729 28.4411 20.8074 28.4285Z" fill="#848184"/>
</g>
<defs>
<filter id="filter0_d_102_344" x="0.285767" y="0.714233" width="53.2644" height="57.7142" filterUnits="userSpaceOnUse" color-interpolation-filters="sRGB">
<feFlood flood-opacity="0" result="BackgroundImageFix"/>
<feColorMatrix in="SourceAlpha" type="matrix" values="0 0 0 0 0 0 0 0 0 0 0 0 0 0 0 0 0 0 127 0" result="hardAlpha"/>
<feOffset dy="2"/>
<feGaussianBlur stdDeviation="5"/>
<feComposite in2="hardAlpha" operator="out"/>
<feColorMatrix type="matrix" values="0 0 0 0 0 0 0 0 0 0 0 0 0 0 0 0 0 0 0.25 0"/>
<feBlend mode="normal" in2="BackgroundImageFix" result="effect1_dropShadow_102_344"/>
<feBlend mode="normal" in="SourceGraphic" in2="effect1_dropShadow_102_344" result="shape"/>
</filter>
</defs>
</svg>
