<svg width="62" height="62" viewBox="0 0 62 62" fill="none" xmlns="http://www.w3.org/2000/svg">
<g filter="url(#filter0_d_1_111)">
<g filter="url(#filter1_i_1_111)">
<path d="M31.0001 8.16699C31.5526 8.16699 32.0825 8.38649 32.4732 8.77719C32.8639 9.16789 33.0834 9.69779 33.0834 10.2503V12.3337C33.0834 12.8862 32.8639 13.4161 32.4732 13.8068C32.0825 14.1975 31.5526 14.417 31.0001 14.417C30.4475 14.417 29.9176 14.1975 29.5269 13.8068C29.1362 13.4161 28.9167 12.8862 28.9167 12.3337V10.2503C28.9167 9.69779 29.1362 9.16789 29.5269 8.77719C29.9176 8.38649 30.4475 8.16699 31.0001 8.16699ZM15.9855 13.9857C16.3762 13.5952 16.906 13.3758 17.4584 13.3758C18.0108 13.3758 18.5406 13.5952 18.9313 13.9857L21.0147 16.0691C21.3942 16.462 21.6041 16.9883 21.5994 17.5345C21.5947 18.0807 21.3756 18.6033 20.9893 18.9895C20.603 19.3758 20.0805 19.5949 19.5343 19.5996C18.988 19.6044 18.4618 19.3944 18.0688 19.0149L15.9855 16.9316C15.5949 16.5409 15.3755 16.0111 15.3755 15.4587C15.3755 14.9062 15.5949 14.3764 15.9855 13.9857ZM46.0147 13.9857C46.4052 14.3764 46.6246 14.9062 46.6246 15.4587C46.6246 16.0111 46.4052 16.5409 46.0147 16.9316L43.9313 19.0149C43.7392 19.2139 43.5093 19.3726 43.2551 19.4818C43.0009 19.591 42.7275 19.6484 42.4509 19.6508C42.1743 19.6533 41.9 19.6005 41.6439 19.4958C41.3879 19.391 41.1553 19.2363 40.9597 19.0407C40.7641 18.8451 40.6094 18.6125 40.5046 18.3565C40.3999 18.1004 40.3472 17.8261 40.3496 17.5495C40.352 17.2729 40.4094 16.9995 40.5186 16.7453C40.6278 16.4911 40.7865 16.2613 40.9855 16.0691L43.0688 13.9857C43.4595 13.5952 43.9893 13.3758 44.5418 13.3758C45.0942 13.3758 45.624 13.5952 46.0147 13.9857ZM31.0001 20.667C28.7899 20.667 26.6703 21.545 25.1075 23.1078C23.5447 24.6706 22.6667 26.7902 22.6667 29.0003C22.6667 31.2105 23.5447 33.3301 25.1075 34.8929C26.6703 36.4557 28.7899 37.3337 31.0001 37.3337C33.2102 37.3337 35.3298 36.4557 36.8926 34.8929C38.4554 33.3301 39.3334 31.2105 39.3334 29.0003C39.3334 26.7902 38.4554 24.6706 36.8926 23.1078C35.3298 21.545 33.2102 20.667 31.0001 20.667ZM18.5001 29.0003C18.5004 26.8062 19.0782 24.6508 20.1755 22.7508C21.2728 20.8507 22.8509 19.273 24.7512 18.1761C26.6515 17.0792 28.8071 16.5019 31.0012 16.5021C33.1953 16.5023 35.3507 17.08 37.2508 18.1772C39.1509 19.2744 40.7288 20.8524 41.8257 22.7527C42.9227 24.6529 43.5002 26.8084 43.5001 29.0025C43.5 31.1967 42.9224 33.3521 41.8253 35.2523C40.7282 37.1524 39.1503 38.7303 37.2501 39.8274V43.5837C37.2501 45.2413 36.5916 46.831 35.4195 48.0031C34.2474 49.1752 32.6577 49.8337 31.0001 49.8337C29.3425 49.8337 27.7528 49.1752 26.5807 48.0031C25.4086 46.831 24.7501 45.2413 24.7501 43.5837V39.8274C22.8493 38.7305 21.2709 37.1523 20.1738 35.2517C19.0766 33.351 18.4993 31.1949 18.5001 29.0003ZM28.9167 41.3274V43.5837C28.9167 44.1362 29.1362 44.6661 29.5269 45.0568C29.9176 45.4475 30.4475 45.667 31.0001 45.667C31.5526 45.667 32.0825 45.4475 32.4732 45.0568C32.8639 44.6661 33.0834 44.1362 33.0834 43.5837V41.3274C31.7042 41.5593 30.296 41.5593 28.9167 41.3274ZM10.1667 29.0003C10.1667 28.4478 10.3862 27.9179 10.7769 27.5272C11.1676 27.1365 11.6975 26.917 12.2501 26.917H14.3334C14.8859 26.917 15.4159 27.1365 15.8066 27.5272C16.1973 27.9179 16.4167 28.4478 16.4167 29.0003C16.4167 29.5529 16.1973 30.0828 15.8066 30.4735C15.4159 30.8642 14.8859 31.0837 14.3334 31.0837H12.2501C11.6975 31.0837 11.1676 30.8642 10.7769 30.4735C10.3862 30.0828 10.1667 29.5529 10.1667 29.0003ZM45.5834 29.0003C45.5834 28.4478 45.8029 27.9179 46.1936 27.5272C46.5843 27.1365 47.1142 26.917 47.6668 26.917H49.7501C50.3026 26.917 50.8325 27.1365 51.2232 27.5272C51.6139 27.9179 51.8334 28.4478 51.8334 29.0003C51.8334 29.5529 51.6139 30.0828 51.2232 30.4735C50.8325 30.8642 50.3026 31.0837 49.7501 31.0837H47.6668C47.1142 31.0837 46.5843 30.8642 46.1936 30.4735C45.8029 30.0828 45.5834 29.5529 45.5834 29.0003Z" fill="url(#paint0_linear_1_111)"/>
</g>
</g>
<defs>
<filter id="filter0_d_1_111" x="0.166748" y="0.166992" width="61.6667" height="61.6667" filterUnits="userSpaceOnUse" color-interpolation-filters="sRGB">
<feFlood flood-opacity="0" result="BackgroundImageFix"/>
<feColorMatrix in="SourceAlpha" type="matrix" values="0 0 0 0 0 0 0 0 0 0 0 0 0 0 0 0 0 0 127 0" result="hardAlpha"/>
<feOffset dy="2"/>
<feGaussianBlur stdDeviation="5"/>
<feComposite in2="hardAlpha" operator="out"/>
<feColorMatrix type="matrix" values="0 0 0 0 0 0 0 0 0 0 0 0 0 0 0 0 0 0 0.25 0"/>
<feBlend mode="normal" in2="BackgroundImageFix" result="effect1_dropShadow_1_111"/>
<feBlend mode="normal" in="SourceGraphic" in2="effect1_dropShadow_1_111" result="shape"/>
</filter>
<filter id="filter1_i_1_111" x="10.1667" y="8.16699" width="41.6667" height="41.6667" filterUnits="userSpaceOnUse" color-interpolation-filters="sRGB">
<feFlood flood-opacity="0" result="BackgroundImageFix"/>
<feBlend mode="normal" in="SourceGraphic" in2="BackgroundImageFix" result="shape"/>
<feColorMatrix in="SourceAlpha" type="matrix" values="0 0 0 0 0 0 0 0 0 0 0 0 0 0 0 0 0 0 127 0" result="hardAlpha"/>
<feOffset/>
<feGaussianBlur stdDeviation="5"/>
<feComposite in2="hardAlpha" operator="arithmetic" k2="-1" k3="1"/>
<feColorMatrix type="matrix" values="0 0 0 0 0 0 0 0 0 0 0 0 0 0 0 0 0 0 0.1 0"/>
<feBlend mode="normal" in2="shape" result="effect1_innerShadow_1_111"/>
</filter>
<linearGradient id="paint0_linear_1_111" x1="31.0001" y1="8.16699" x2="31.0001" y2="49.8337" gradientUnits="userSpaceOnUse">
<stop stop-color="#27D71C"/>
<stop offset="1" stop-color="#ABE605"/>
</linearGradient>
</defs>
</svg>
