<svg width="25" height="32" viewBox="0 0 25 32" fill="none" xmlns="http://www.w3.org/2000/svg">
<g filter="url(#filter0_d_4_1228)">
<path d="M12.5 1.79214e-08C13.828 -0.000110164 15.1056 0.507841 16.071 1.41969C17.0364 2.33154 17.6164 3.57819 17.692 4.904L17.7 5.2L17.7016 17.9232L17.8296 18.0336C19.3206 19.3629 20.2592 21.2029 20.46 23.1904L20.4904 23.5936L20.5 24C20.5002 25.3181 20.1748 26.6158 19.5526 27.7778C18.9303 28.9398 18.0307 29.9301 16.9335 30.6606C15.8363 31.391 14.5756 31.8391 13.2635 31.9649C11.9514 32.0907 10.6286 31.8904 9.41261 31.3817C8.19662 30.873 7.12516 30.0717 6.29349 29.0491C5.46182 28.0265 4.8957 26.8142 4.64548 25.5201C4.39525 24.226 4.46867 22.8901 4.8592 21.6311C5.24973 20.3722 5.94528 19.2293 6.884 18.304L7.172 18.032L7.2984 17.9232L7.3 5.2C7.29974 3.92209 7.77005 2.68882 8.62117 1.73559C9.47229 0.782359 10.6446 0.175913 11.9144 0.032L12.2056 0.0080002L12.5 1.79214e-08ZM12.5 2.4C11.797 2.40006 11.1198 2.66453 10.6029 3.14088C10.0859 3.61722 9.76704 4.27059 9.7096 4.9712L9.7 5.2V19.1104L9.2056 19.4704C8.26101 20.1575 7.55491 21.1227 7.18614 22.2311C6.81737 23.3394 6.80438 24.5352 7.14901 25.6513C7.49363 26.7674 8.17861 27.7477 9.10806 28.4551C10.0375 29.1626 11.1649 29.5617 12.3324 29.5966C13.5 29.6315 14.6492 29.3004 15.6192 28.6497C16.5893 27.9991 17.3316 27.0614 17.7422 25.9679C18.1529 24.8744 18.2113 23.6799 17.9094 22.5515C17.6075 21.4232 16.9603 20.4175 16.0584 19.6752L15.7944 19.472L15.3032 19.112L15.3 5.2C15.3 4.45739 15.005 3.7452 14.4799 3.2201C13.9548 2.695 13.2426 2.4 12.5 2.4Z" fill="#EDBAFF"/>
<path d="M12.5 9.33337C12.8181 9.33337 13.1232 9.46161 13.3482 9.68988C13.5731 9.91815 13.6995 10.2277 13.6995 10.5506V20.069C14.6112 20.3598 15.3902 20.9723 15.8954 21.7955C16.4006 22.6187 16.5987 23.5983 16.4537 24.5568C16.3087 25.5154 15.8303 26.3896 15.1051 27.0212C14.3798 27.6528 13.4557 28 12.5 28C11.5443 28 10.6202 27.6528 9.89493 27.0212C9.16969 26.3896 8.69128 25.5154 8.5463 24.5568C8.40132 23.5983 8.59936 22.6187 9.10457 21.7955C9.60978 20.9723 10.3888 20.3598 11.3005 20.069V10.5506C11.3005 10.2277 11.4269 9.91815 11.6518 9.68988C11.8768 9.46161 12.1819 9.33337 12.5 9.33337Z" fill="#EDBAFF"/>
</g>
<defs>
<filter id="filter0_d_4_1228" x="0.5" y="0" width="24" height="40.0015" filterUnits="userSpaceOnUse" color-interpolation-filters="sRGB">
<feFlood flood-opacity="0" result="BackgroundImageFix"/>
<feColorMatrix in="SourceAlpha" type="matrix" values="0 0 0 0 0 0 0 0 0 0 0 0 0 0 0 0 0 0 127 0" result="hardAlpha"/>
<feOffset dy="4"/>
<feGaussianBlur stdDeviation="2"/>
<feComposite in2="hardAlpha" operator="out"/>
<feColorMatrix type="matrix" values="0 0 0 0 0 0 0 0 0 0 0 0 0 0 0 0 0 0 0.25 0"/>
<feBlend mode="normal" in2="BackgroundImageFix" result="effect1_dropShadow_4_1228"/>
<feBlend mode="normal" in="SourceGraphic" in2="effect1_dropShadow_4_1228" result="shape"/>
</filter>
</defs>
</svg>
